<svg id="Capa_1" data-name="Capa 1" xmlns="http://www.w3.org/2000/svg" viewBox="0 0 400 400"><defs><style>.cls-1{fill:#dfb458;}.cls-2{fill:#f0ca6c;}.cls-3,.cls-4{fill:none;stroke:#49496a;stroke-miterlimit:10;stroke-width:19.58px;}.cls-4{stroke-linecap:round;}.cls-5{fill:#80a8cc;}</style></defs><circle class="cls-1" cx="200" cy="200" r="200"/><circle class="cls-2" cx="200" cy="209.91" r="175.3"/><circle class="cls-1" cx="274.68" cy="201.21" r="49.73"/><circle class="cls-1" cx="125.32" cy="201.21" r="49.73"/><path class="cls-3" d="M324.41,201a99.61,99.61,0,0,1-99.47,0" transform="translate(0 0)"/><path class="cls-3" d="M175.06,201a99.61,99.61,0,0,1-99.47,0" transform="translate(0 0)"/><path class="cls-4" d="M142.83,134h0a35.36,35.36,0,0,1-52.66,14.11h0" transform="translate(0 0)"/><path class="cls-4" d="M309.65,148.14h0A35.36,35.36,0,0,1,257,134h0" transform="translate(0 0)"/><path class="cls-4" d="M124.82,322.53c18.94-16,45.19-25.9,74.2-25.9,29.38,0,55.94,10.16,74.93,26.53" transform="translate(0 0)"/><path class="cls-1" d="M225.31,356.47h0c-10.31-28.19-40.31-28.19-50.62,0h0" transform="translate(0 0)"/><path class="cls-5" d="M36.21,201h0A21.25,21.25,0,0,1,16,173.29L36.21,134l20.23,39.26A21.25,21.25,0,0,1,36.21,201Z" transform="translate(0 0)"/><path class="cls-5" d="M343.19,123h0a13.51,13.51,0,0,0,12.86-17.63L343.19,80.45l-12.85,24.94A13.5,13.5,0,0,0,343.19,123Z" transform="translate(0 0)"/></svg>