<svg id="Capa_2" data-name="Capa 2" xmlns="http://www.w3.org/2000/svg" viewBox="0 0 400 400"><defs><style>.cls-1{fill:#dfb458;}.cls-2{fill:#f0ca6c;}.cls-3{fill:#49496a;}.cls-4{fill:#fff;}.cls-5{fill:#c45555;}.cls-6{fill:none;stroke:#49496a;stroke-linecap:round;stroke-miterlimit:10;stroke-width:19.58px;}.cls-7{fill:#fcfcfb;}</style></defs><circle class="cls-1" cx="200" cy="200" r="200"/><circle class="cls-2" cx="200" cy="185.43" r="179.18"/><path class="cls-3" d="M116,217.46H284a7.45,7.45,0,0,1,7.45,7.45v0A91.42,91.42,0,0,1,200,316.33h0a91.42,91.42,0,0,1-91.42-91.42v0a7.45,7.45,0,0,1,7.45-7.45Z"/><path class="cls-4" d="M123.05,217.46s.81,13,1.58,15.81a7.57,7.57,0,0,0,7.28,5.52H268.09a7.57,7.57,0,0,0,7.28-5.52c.77-2.76,1.58-15.81,1.58-15.81Z" transform="translate(0 0)"/><path class="cls-5" d="M200,316.33a91,91,0,0,0,57.68-20.5,128.63,128.63,0,0,0-115.36,0A91,91,0,0,0,200,316.33Z" transform="translate(0 0)"/><path class="cls-6" d="M81.34,69.26S102,37.1,134.56,45.39" transform="translate(0 0)"/><path class="cls-6" d="M318.66,69.26S298,37.1,265.44,45.39" transform="translate(0 0)"/><circle class="cls-7" cx="125.32" cy="136.68" r="49.73"/><circle class="cls-7" cx="274.68" cy="136.68" r="49.73"/><circle class="cls-3" cx="142.18" cy="136.68" r="32.87"/><circle class="cls-7" cx="130.26" cy="122.36" r="7.98"/><circle class="cls-3" cx="257.82" cy="136.68" r="32.87"/><circle class="cls-7" cx="245.89" cy="122.36" r="7.98"/></svg>