<svg id="Capa_3" data-name="Capa 3" xmlns="http://www.w3.org/2000/svg" viewBox="0 0 401.32 401.32"><defs><style>.cls-1{fill:#dfb458;}.cls-2{fill:#f0ca6c;}.cls-3,.cls-4{fill:none;stroke:#49496a;}.cls-3,.cls-5{stroke-miterlimit:10;}.cls-3{stroke-width:19.64px;}.cls-4{stroke-linecap:round;stroke-linejoin:round;stroke-width:19.64px;}.cls-5,.cls-7{fill:#c45555;}.cls-5{stroke:#c45555;stroke-width:9.21px;}.cls-6{fill:#49496a;}.cls-8{fill:#fff;}</style></defs><circle class="cls-1" cx="200.66" cy="200.66" r="200.61"/><circle class="cls-2" cx="200.66" cy="186.04" r="175.84"/><path class="cls-3" d="M121.31,51.87" transform="translate(0.66 0.66)"/><path class="cls-4" d="M200.73,34.31h0a42.46,42.46,0,0,0-63.22-16.94h0" transform="translate(0.66 0.66)"/><path class="cls-4" d="M274.07,86.54h0a42.46,42.46,0,0,1,63.22,16.94h0" transform="translate(0.66 0.66)"/><path class="cls-4" d="M140,253.91a87,87,0,0,0,123.11,0" transform="translate(0.66 0.66)"/><rect class="cls-5" x="192.58" y="98.3" width="63.7" height="21.52" transform="translate(36.53 -53.71) rotate(15)"/><path class="cls-6" d="M111,190.83l-22.93-6.15a52.27,52.27,0,0,1-37-64l10-37.2a32.69,32.69,0,0,1,40.05-23.12L188.74,83.8a32.7,32.7,0,0,1,23.12,40.05l-2.78,10.37A80.05,80.05,0,0,1,111,190.83Z" transform="translate(0.66 0.66)"/><path class="cls-6" d="M282.32,234.12l22,5.89a50.14,50.14,0,0,0,61.41-35.46l9.56-35.68a31.37,31.37,0,0,0-22.18-38.42l-84-22.51a31.37,31.37,0,0,0-38.42,22.18L228,140.07A76.8,76.8,0,0,0,282.32,234.12Z" transform="translate(0.66 0.66)"/><path class="cls-7" d="M92.21,58.27V69.94a21.58,21.58,0,0,1,5.57.74L186.5,94.45a21.48,21.48,0,0,1,15.17,26.28l-2.81,10.5a69.37,69.37,0,0,1-85,49.1L90.59,174.1A41.33,41.33,0,0,1,61.4,123.54L71.5,85.85A21.47,21.47,0,0,1,92.2,69.94V58.27m0,0a33.15,33.15,0,0,0-32,24.56l-10.1,37.68a53,53,0,0,0,37.45,64.87l23.23,6.22a81,81,0,0,0,99.33-57.35l2.82-10.5a33.15,33.15,0,0,0-23.43-40.58L100.8,59.4a32.73,32.73,0,0,0-8.6-1.13Z" transform="translate(0.66 0.66)"/><path class="cls-7" d="M259,114.63a21.6,21.6,0,0,1,5.58.74l88.72,23.78a21.48,21.48,0,0,1,15.17,26.28l-10.1,37.68a41.22,41.22,0,0,1-50.56,29.2l-23.23-6.23a69.51,69.51,0,0,1-49.1-85l2.82-10.5A21.48,21.48,0,0,1,259,114.63M259,103a33.14,33.14,0,0,0-32,24.57L224.22,138a81.11,81.11,0,0,0,57.35,99.33l23.23,6.22a52.89,52.89,0,0,0,64.86-37.45l10.09-37.68a33.13,33.13,0,0,0-23.42-40.58L267.61,104.1A33.17,33.17,0,0,0,259,103Z" transform="translate(0.66 0.66)"/><path class="cls-7" d="M102.88,60l-40.83-11a4.81,4.81,0,0,0-5.88,3.4l-1.79,6.66a12.54,12.54,0,0,0,8.86,15.35h0Z" transform="translate(0.66 0.66)"/><path class="cls-7" d="M354.21,127.37,395,138.31a4.8,4.8,0,0,1,3.4,5.88l-1.78,6.66a12.52,12.52,0,0,1-15.35,8.86h0Z" transform="translate(0.66 0.66)"/><path class="cls-8" d="M187.38,120.63a15.49,15.49,0,1,1-10.95-19A15.5,15.5,0,0,1,187.38,120.63Z" transform="translate(0.66 0.66)"/><path class="cls-8" d="M156.5,136.77a7,7,0,1,1-4.93-8.55A7,7,0,0,1,156.5,136.77Z" transform="translate(0.66 0.66)"/><path class="cls-8" d="M358.66,166.53a15.49,15.49,0,1,1-11-19A15.49,15.49,0,0,1,358.66,166.53Z" transform="translate(0.66 0.66)"/><path class="cls-8" d="M327.78,182.66a7,7,0,1,1-4.93-8.54A7,7,0,0,1,327.78,182.66Z" transform="translate(0.66 0.66)"/></svg>